<svg xmlns="http://www.w3.org/2000/svg" viewBox="0 0 64 64" width="64" height="64">
  <!-- Graph Frame -->
  <rect x="8" y="8" width="48" height="48" fill="none" stroke="black" stroke-width="2"/>
  
  <!-- X and Y Axis -->
  <line x1="16" y1="52" x2="16" y2="12" stroke="black" stroke-width="2"/>
  <line x1="16" y1="52" x2="56" y2="52" stroke="black" stroke-width="2"/>
  
  <!-- Line 1 (Funds) -->
  <polyline points="16,52 24,44 32,36 40,30 48,20" fill="none" stroke="#4CAF50" stroke-width="3"/>
  
  <!-- Line 2 (Banks) -->
  <polyline points="16,52 28,40 36,34 44,26 56,16" fill="none" stroke="#2196F3" stroke-width="3"/>
  
  <!-- Dots on Line 1 (Funds) -->
  <circle cx="16" cy="52" r="2" fill="#4CAF50"/>
  <circle cx="24" cy="44" r="2" fill="#4CAF50"/>
  <circle cx="32" cy="36" r="2" fill="#4CAF50"/>
  <circle cx="40" cy="30" r="2" fill="#4CAF50"/>
  <circle cx="48" cy="20" r="2" fill="#4CAF50"/>
  
  <!-- Dots on Line 2 (Banks) -->
  <circle cx="16" cy="52" r="2" fill="#2196F3"/>
  <circle cx="28" cy="40" r="2" fill="#2196F3"/>
  <circle cx="36" cy="34" r="2" fill="#2196F3"/>
  <circle cx="44" cy="26" r="2" fill="#2196F3"/>
  <circle cx="56" cy="16" r="2" fill="#2196F3"/>
  
  <!-- Labels -->
  <text x="10" y="58" font-family="Arial" font-size="8" fill="black">0</text>
  <text x="50" y="58" font-family="Arial" font-size="8" fill="black">Time</text>
  <text x="0" y="16" font-family="Arial" font-size="8" fill="black">Growth</text>
</svg>
